<mxfile host="app.diagrams.net" modified="2022-05-10T21:17:37.984Z" agent="5.0 (Windows NT 10.0; Win64; x64) AppleWebKit/537.36 (KHTML, like Gecko) Chrome/101.0.4951.54 Safari/537.36" etag="33sRgqU9EKcbKVzZ8Tlw" version="18.0.1" type="github">
  <diagram id="R2lEEEUBdFMjLlhIrx00" name="Page-1">
    <mxGraphModel dx="989" dy="591" grid="1" gridSize="3.937" guides="1" tooltips="1" connect="1" arrows="1" fold="1" page="1" pageScale="1" pageWidth="2339" pageHeight="3300" math="0" shadow="0" extFonts="Permanent Marker^https://fonts.googleapis.com/css?family=Permanent+Marker">
      <root>
        <mxCell id="0" />
        <mxCell id="1" parent="0" />
        <mxCell id="bOlvTl43doBLw3R69mOg-1" value="" style="rounded=0;whiteSpace=wrap;html=1;fillColor=none;strokeWidth=4;" parent="1" vertex="1">
          <mxGeometry x="30.009999999999994" y="20.03" width="2290" height="3250" as="geometry" />
        </mxCell>
        <mxCell id="bOlvTl43doBLw3R69mOg-2" value="" style="rounded=0;whiteSpace=wrap;html=1;fillColor=none;" parent="1" vertex="1">
          <mxGeometry x="1591.1100000000001" y="3092.86" width="728.35" height="177.165" as="geometry" />
        </mxCell>
        <mxCell id="UN5E2BRM_m0n_mUQd9ct-3" value="" style="rounded=0;whiteSpace=wrap;html=1;fillColor=none;" parent="1" vertex="1">
          <mxGeometry x="1592.0099999999998" y="3131.16" width="27.558999999999997" height="19.685" as="geometry" />
        </mxCell>
        <mxCell id="UN5E2BRM_m0n_mUQd9ct-4" value="" style="rounded=0;whiteSpace=wrap;html=1;fillColor=none;" parent="1" vertex="1">
          <mxGeometry x="1592.0000000000002" y="3151.6699999999996" width="27.558999999999997" height="19.685" as="geometry" />
        </mxCell>
        <mxCell id="UN5E2BRM_m0n_mUQd9ct-5" value="" style="rounded=0;whiteSpace=wrap;html=1;fillColor=none;" parent="1" vertex="1">
          <mxGeometry x="1592.01" y="3111.47" width="27.558999999999997" height="19.685" as="geometry" />
        </mxCell>
        <mxCell id="UN5E2BRM_m0n_mUQd9ct-9" value="" style="rounded=0;whiteSpace=wrap;html=1;fillColor=none;" parent="1" vertex="1">
          <mxGeometry x="1619.5699999999997" y="3131.16" width="39.37" height="19.685" as="geometry" />
        </mxCell>
        <mxCell id="UN5E2BRM_m0n_mUQd9ct-10" value="" style="rounded=0;whiteSpace=wrap;html=1;fillColor=none;" parent="1" vertex="1">
          <mxGeometry x="1619.5600000000002" y="3151.6699999999996" width="39.37" height="19.685" as="geometry" />
        </mxCell>
        <mxCell id="UN5E2BRM_m0n_mUQd9ct-11" value="" style="rounded=0;whiteSpace=wrap;html=1;fillColor=none;" parent="1" vertex="1">
          <mxGeometry x="1619.57" y="3111.47" width="39.37" height="19.685" as="geometry" />
        </mxCell>
        <mxCell id="UN5E2BRM_m0n_mUQd9ct-14" value="" style="rounded=0;whiteSpace=wrap;html=1;fillColor=none;" parent="1" vertex="1">
          <mxGeometry x="1658.9399999999998" y="3131.16" width="90.551" height="19.685" as="geometry" />
        </mxCell>
        <mxCell id="UN5E2BRM_m0n_mUQd9ct-15" value="" style="rounded=0;whiteSpace=wrap;html=1;fillColor=none;" parent="1" vertex="1">
          <mxGeometry x="1659.2800000000002" y="3130.9399999999996" width="90.551" height="19.685" as="geometry" />
        </mxCell>
        <mxCell id="UN5E2BRM_m0n_mUQd9ct-16" value="" style="rounded=0;whiteSpace=wrap;html=1;fillColor=none;" parent="1" vertex="1">
          <mxGeometry x="1658.94" y="3111.47" width="90.551" height="19.685" as="geometry" />
        </mxCell>
        <mxCell id="UN5E2BRM_m0n_mUQd9ct-19" value="" style="rounded=0;whiteSpace=wrap;html=1;fillColor=none;" parent="1" vertex="1">
          <mxGeometry x="1749.4899999999998" y="3131.16" width="59.055" height="19.685" as="geometry" />
        </mxCell>
        <mxCell id="UN5E2BRM_m0n_mUQd9ct-20" value="" style="rounded=0;whiteSpace=wrap;html=1;fillColor=none;" parent="1" vertex="1">
          <mxGeometry x="1749.14" y="3151.67" width="59.055" height="19.685" as="geometry" />
        </mxCell>
        <mxCell id="UN5E2BRM_m0n_mUQd9ct-21" value="" style="rounded=0;whiteSpace=wrap;html=1;fillColor=none;" parent="1" vertex="1">
          <mxGeometry x="1749.49" y="3111.47" width="59.055" height="19.685" as="geometry" />
        </mxCell>
        <mxCell id="UN5E2BRM_m0n_mUQd9ct-24" value="" style="rounded=0;whiteSpace=wrap;html=1;fillColor=none;" parent="1" vertex="1">
          <mxGeometry x="1808.2099999999998" y="3132" width="39.37" height="19.685" as="geometry" />
        </mxCell>
        <mxCell id="UN5E2BRM_m0n_mUQd9ct-25" value="" style="rounded=0;whiteSpace=wrap;html=1;fillColor=none;" parent="1" vertex="1">
          <mxGeometry x="1808.2" y="3151.67" width="39.37" height="19.685" as="geometry" />
        </mxCell>
        <mxCell id="UN5E2BRM_m0n_mUQd9ct-26" value="" style="rounded=0;whiteSpace=wrap;html=1;fillColor=none;" parent="1" vertex="1">
          <mxGeometry x="1808.19" y="3111.47" width="39.37" height="19.685" as="geometry" />
        </mxCell>
        <mxCell id="UN5E2BRM_m0n_mUQd9ct-27" value="" style="rounded=0;whiteSpace=wrap;html=1;fillColor=none;" parent="1" vertex="1">
          <mxGeometry x="1847.56" y="3092.86" width="472.43" height="59.055" as="geometry" />
        </mxCell>
        <mxCell id="UN5E2BRM_m0n_mUQd9ct-28" value="Изм." style="text;html=1;strokeColor=none;fillColor=none;align=center;verticalAlign=middle;whiteSpace=wrap;rounded=0;fontFamily=Times New Roman;fontSize=10;" parent="1" vertex="1">
          <mxGeometry x="1591.11" y="3151.66" width="27.558999999999997" height="19.685" as="geometry" />
        </mxCell>
        <mxCell id="UN5E2BRM_m0n_mUQd9ct-29" value="Лист" style="text;html=1;strokeColor=none;fillColor=none;align=center;verticalAlign=middle;whiteSpace=wrap;rounded=0;fontFamily=Times New Roman;fontSize=10;" parent="1" vertex="1">
          <mxGeometry x="1619.9099999999999" y="3150.85" width="39.37" height="19.685" as="geometry" />
        </mxCell>
        <mxCell id="UN5E2BRM_m0n_mUQd9ct-30" value="№ докум." style="text;html=1;strokeColor=none;fillColor=none;align=center;verticalAlign=middle;whiteSpace=wrap;rounded=0;fontFamily=Times New Roman;fontSize=10;" parent="1" vertex="1">
          <mxGeometry x="1659.2799999999997" y="3151.66" width="90.551" height="19.68" as="geometry" />
        </mxCell>
        <mxCell id="UN5E2BRM_m0n_mUQd9ct-31" value="Подп" style="text;html=1;strokeColor=none;fillColor=none;align=center;verticalAlign=middle;whiteSpace=wrap;rounded=0;fontFamily=Times New Roman;fontSize=10;" parent="1" vertex="1">
          <mxGeometry x="1748.5900000000001" y="3151.93" width="59.055" height="19.68" as="geometry" />
        </mxCell>
        <mxCell id="UN5E2BRM_m0n_mUQd9ct-32" value="Дата" style="text;html=1;strokeColor=none;fillColor=none;align=center;verticalAlign=middle;whiteSpace=wrap;rounded=0;fontFamily=Times New Roman;fontSize=10;" parent="1" vertex="1">
          <mxGeometry x="1808.1899999999998" y="3151.93" width="39.37" height="19.685" as="geometry" />
        </mxCell>
        <mxCell id="UN5E2BRM_m0n_mUQd9ct-34" value="" style="rounded=0;whiteSpace=wrap;html=1;fillColor=none;" parent="1" vertex="1">
          <mxGeometry x="1592" y="3171.6" width="66.929" height="19.68" as="geometry" />
        </mxCell>
        <mxCell id="UN5E2BRM_m0n_mUQd9ct-35" value="" style="rounded=0;whiteSpace=wrap;html=1;fillColor=none;" parent="1" vertex="1">
          <mxGeometry x="1592" y="3191.28" width="66.929" height="19.68" as="geometry" />
        </mxCell>
        <mxCell id="UN5E2BRM_m0n_mUQd9ct-36" value="" style="rounded=0;whiteSpace=wrap;html=1;fillColor=none;" parent="1" vertex="1">
          <mxGeometry x="1592" y="3210.96" width="66.929" height="19.68" as="geometry" />
        </mxCell>
        <mxCell id="UN5E2BRM_m0n_mUQd9ct-37" value="" style="rounded=0;whiteSpace=wrap;html=1;fillColor=none;" parent="1" vertex="1">
          <mxGeometry x="1592" y="3230.64" width="66.929" height="19.68" as="geometry" />
        </mxCell>
        <mxCell id="UN5E2BRM_m0n_mUQd9ct-38" value="" style="rounded=0;whiteSpace=wrap;html=1;fillColor=none;" parent="1" vertex="1">
          <mxGeometry x="1592" y="3250.32" width="66.929" height="19.68" as="geometry" />
        </mxCell>
        <mxCell id="UN5E2BRM_m0n_mUQd9ct-39" value="" style="rounded=0;whiteSpace=wrap;html=1;fillColor=none;" parent="1" vertex="1">
          <mxGeometry x="1658.6" y="3151.6699999999996" width="90.551" height="19.68" as="geometry" />
        </mxCell>
        <mxCell id="UN5E2BRM_m0n_mUQd9ct-42" value="" style="rounded=0;whiteSpace=wrap;html=1;fillColor=none;" parent="1" vertex="1">
          <mxGeometry x="1658.59" y="3210.96" width="90.551" height="19.68" as="geometry" />
        </mxCell>
        <mxCell id="UN5E2BRM_m0n_mUQd9ct-43" value="" style="rounded=0;whiteSpace=wrap;html=1;fillColor=none;" parent="1" vertex="1">
          <mxGeometry x="1658.59" y="3230.64" width="90.551" height="19.68" as="geometry" />
        </mxCell>
        <mxCell id="UN5E2BRM_m0n_mUQd9ct-44" value="" style="rounded=0;whiteSpace=wrap;html=1;fillColor=none;" parent="1" vertex="1">
          <mxGeometry x="1658.59" y="3250.32" width="90.551" height="19.68" as="geometry" />
        </mxCell>
        <mxCell id="UN5E2BRM_m0n_mUQd9ct-45" value="" style="rounded=0;whiteSpace=wrap;html=1;fillColor=none;" parent="1" vertex="1">
          <mxGeometry x="1749.1499999999999" y="3171.61" width="59.055" height="19.68" as="geometry" />
        </mxCell>
        <mxCell id="UN5E2BRM_m0n_mUQd9ct-46" value="" style="rounded=0;whiteSpace=wrap;html=1;fillColor=none;" parent="1" vertex="1">
          <mxGeometry x="1749.1399999999999" y="3191.2799999999997" width="59.055" height="19.68" as="geometry" />
        </mxCell>
        <mxCell id="UN5E2BRM_m0n_mUQd9ct-48" value="" style="rounded=0;whiteSpace=wrap;html=1;fillColor=none;" parent="1" vertex="1">
          <mxGeometry x="1749.1399999999999" y="3210.96" width="59.055" height="19.68" as="geometry" />
        </mxCell>
        <mxCell id="UN5E2BRM_m0n_mUQd9ct-49" value="" style="rounded=0;whiteSpace=wrap;html=1;fillColor=none;" parent="1" vertex="1">
          <mxGeometry x="1749.1399999999999" y="3230.64" width="59.055" height="19.68" as="geometry" />
        </mxCell>
        <mxCell id="UN5E2BRM_m0n_mUQd9ct-50" value="" style="rounded=0;whiteSpace=wrap;html=1;fillColor=none;" parent="1" vertex="1">
          <mxGeometry x="1749.1399999999999" y="3250.32" width="59.055" height="19.68" as="geometry" />
        </mxCell>
        <mxCell id="UN5E2BRM_m0n_mUQd9ct-51" value="" style="rounded=0;whiteSpace=wrap;html=1;fillColor=none;" parent="1" vertex="1">
          <mxGeometry x="1808.1899999999998" y="3171.35" width="39.37" height="19.68" as="geometry" />
        </mxCell>
        <mxCell id="UN5E2BRM_m0n_mUQd9ct-52" value="" style="rounded=0;whiteSpace=wrap;html=1;fillColor=none;" parent="1" vertex="1">
          <mxGeometry x="1808.2" y="3191.2799999999997" width="39.37" height="19.68" as="geometry" />
        </mxCell>
        <mxCell id="UN5E2BRM_m0n_mUQd9ct-54" value="" style="rounded=0;whiteSpace=wrap;html=1;fillColor=none;" parent="1" vertex="1">
          <mxGeometry x="1808.2" y="3210.96" width="39.37" height="19.68" as="geometry" />
        </mxCell>
        <mxCell id="UN5E2BRM_m0n_mUQd9ct-55" value="" style="rounded=0;whiteSpace=wrap;html=1;fillColor=none;" parent="1" vertex="1">
          <mxGeometry x="1808.2" y="3230.64" width="39.37" height="19.68" as="geometry" />
        </mxCell>
        <mxCell id="UN5E2BRM_m0n_mUQd9ct-56" value="" style="rounded=0;whiteSpace=wrap;html=1;fillColor=none;" parent="1" vertex="1">
          <mxGeometry x="1808.2" y="3250.32" width="39.37" height="19.68" as="geometry" />
        </mxCell>
        <mxCell id="UN5E2BRM_m0n_mUQd9ct-58" value="" style="rounded=0;whiteSpace=wrap;html=1;fontFamily=Times New Roman;fontSize=10;fillColor=none;" parent="1" vertex="1">
          <mxGeometry x="2248.59" y="3151.68" width="70.866" height="19.685" as="geometry" />
        </mxCell>
        <mxCell id="UN5E2BRM_m0n_mUQd9ct-59" value="" style="rounded=0;whiteSpace=wrap;html=1;fontFamily=Times New Roman;fontSize=10;fillColor=none;" parent="1" vertex="1">
          <mxGeometry x="2249.1400000000003" y="3170.53" width="70.866" height="39.37" as="geometry" />
        </mxCell>
        <mxCell id="UN5E2BRM_m0n_mUQd9ct-65" value="" style="rounded=0;whiteSpace=wrap;html=1;fontFamily=Times New Roman;fontSize=10;fillColor=none;" parent="1" vertex="1">
          <mxGeometry x="2182.23" y="3151.68" width="66.929" height="19.685" as="geometry" />
        </mxCell>
        <mxCell id="UN5E2BRM_m0n_mUQd9ct-66" value="" style="rounded=0;whiteSpace=wrap;html=1;fontFamily=Times New Roman;fontSize=10;fillColor=none;" parent="1" vertex="1">
          <mxGeometry x="2182.21" y="3170.53" width="66.929" height="39.37" as="geometry" />
        </mxCell>
        <mxCell id="UN5E2BRM_m0n_mUQd9ct-68" value="" style="rounded=0;whiteSpace=wrap;html=1;fontFamily=Times New Roman;fontSize=10;fillColor=none;" parent="1" vertex="1">
          <mxGeometry x="2123.1800000000003" y="3151.92" width="59.055" height="19.685" as="geometry" />
        </mxCell>
        <mxCell id="UN5E2BRM_m0n_mUQd9ct-69" value="" style="rounded=0;whiteSpace=wrap;html=1;fontFamily=Times New Roman;fontSize=10;fillColor=none;" parent="1" vertex="1">
          <mxGeometry x="2123.1600000000003" y="3170.5299999999997" width="59.05" height="39.37" as="geometry" />
        </mxCell>
        <mxCell id="UN5E2BRM_m0n_mUQd9ct-71" value="" style="rounded=0;whiteSpace=wrap;html=1;fontFamily=Times New Roman;fontSize=10;fillColor=none;" parent="1" vertex="1">
          <mxGeometry x="2123.14" y="3210.9700000000003" width="196.85" height="59.055" as="geometry" />
        </mxCell>
        <mxCell id="UN5E2BRM_m0n_mUQd9ct-72" value="Разраб" style="text;html=1;strokeColor=none;fillColor=none;align=center;verticalAlign=middle;whiteSpace=wrap;rounded=0;fontFamily=Times New Roman;fontSize=10;" parent="1" vertex="1">
          <mxGeometry x="1592.35" y="3169.47" width="66.929" height="19.68" as="geometry" />
        </mxCell>
        <mxCell id="UN5E2BRM_m0n_mUQd9ct-73" value="Пров" style="text;html=1;strokeColor=none;fillColor=none;align=center;verticalAlign=middle;whiteSpace=wrap;rounded=0;fontFamily=Times New Roman;fontSize=10;" parent="1" vertex="1">
          <mxGeometry x="1591.1069999999997" y="3190.217" width="66.929" height="19.68" as="geometry" />
        </mxCell>
        <mxCell id="UN5E2BRM_m0n_mUQd9ct-75" value="Н. Контр." style="text;html=1;strokeColor=none;fillColor=none;align=center;verticalAlign=middle;whiteSpace=wrap;rounded=0;fontFamily=Times New Roman;fontSize=10;" parent="1" vertex="1">
          <mxGeometry x="1592.001" y="3230.641" width="66.929" height="19.68" as="geometry" />
        </mxCell>
        <mxCell id="UN5E2BRM_m0n_mUQd9ct-76" value="Утв." style="text;html=1;strokeColor=none;fillColor=none;align=center;verticalAlign=middle;whiteSpace=wrap;rounded=0;fontFamily=Times New Roman;fontSize=10;" parent="1" vertex="1">
          <mxGeometry x="1592.008" y="3250.348" width="66.929" height="19.68" as="geometry" />
        </mxCell>
        <mxCell id="UN5E2BRM_m0n_mUQd9ct-77" value="Лит." style="text;html=1;strokeColor=none;fillColor=none;align=center;verticalAlign=middle;whiteSpace=wrap;rounded=0;fontFamily=Times New Roman;fontSize=10;" parent="1" vertex="1">
          <mxGeometry x="2123.1800000000003" y="3151.93" width="59.055" height="19.68" as="geometry" />
        </mxCell>
        <mxCell id="UN5E2BRM_m0n_mUQd9ct-78" value="Лист" style="text;html=1;strokeColor=none;fillColor=none;align=center;verticalAlign=middle;whiteSpace=wrap;rounded=0;fontFamily=Times New Roman;fontSize=10;" parent="1" vertex="1">
          <mxGeometry x="2182.2320000000004" y="3151.682" width="66.929" height="19.68" as="geometry" />
        </mxCell>
        <mxCell id="UN5E2BRM_m0n_mUQd9ct-79" value="Листов" style="text;html=1;strokeColor=none;fillColor=none;align=center;verticalAlign=middle;whiteSpace=wrap;rounded=0;fontFamily=Times New Roman;fontSize=10;" parent="1" vertex="1">
          <mxGeometry x="2249.16" y="3151.68" width="69.75" height="19.68" as="geometry" />
        </mxCell>
        <mxCell id="UN5E2BRM_m0n_mUQd9ct-80" value="" style="rounded=0;whiteSpace=wrap;html=1;fillColor=none;" parent="1" vertex="1">
          <mxGeometry x="1658.0400000000002" y="3171.6099999999997" width="90.551" height="19.685" as="geometry" />
        </mxCell>
        <mxCell id="UN5E2BRM_m0n_mUQd9ct-81" value="Вершинин В. В." style="text;html=1;strokeColor=none;fillColor=none;align=center;verticalAlign=middle;whiteSpace=wrap;rounded=0;fontFamily=Times New Roman;fontSize=10;" parent="1" vertex="1">
          <mxGeometry x="1659.28" y="3191.03" width="88.74" height="19.68" as="geometry" />
        </mxCell>
        <mxCell id="UN5E2BRM_m0n_mUQd9ct-82" value="Голубев Д. О." style="text;html=1;strokeColor=none;fillColor=none;align=center;verticalAlign=middle;whiteSpace=wrap;rounded=0;fontFamily=Times New Roman;fontSize=10;" parent="1" vertex="1">
          <mxGeometry x="1658.597" y="3171.337" width="88.74" height="19.68" as="geometry" />
        </mxCell>
        <mxCell id="UN5E2BRM_m0n_mUQd9ct-83" value="&lt;p class=&quot;MsoNormal&quot; align=&quot;center&quot;&gt;&lt;i&gt;&lt;span style=&quot;font-size: 18px&quot;&gt;ВлГУ.09.03.02.06. Чертеж №2&lt;/span&gt;&lt;/i&gt;&lt;/p&gt;" style="text;html=1;strokeColor=none;fillColor=none;align=center;verticalAlign=middle;whiteSpace=wrap;rounded=0;fontFamily=Times New Roman;fontSize=10;" parent="1" vertex="1">
          <mxGeometry x="1847.56" y="3092.86" width="471.33" height="56.74" as="geometry" />
        </mxCell>
        <mxCell id="UN5E2BRM_m0n_mUQd9ct-84" value="&lt;font style=&quot;font-size: 17px&quot;&gt;ИСТ-120&lt;/font&gt;" style="text;html=1;strokeColor=none;fillColor=none;align=center;verticalAlign=middle;whiteSpace=wrap;rounded=0;fontFamily=Times New Roman;fontSize=10;" parent="1" vertex="1">
          <mxGeometry x="2123.18" y="3209.9" width="195.71" height="57.81" as="geometry" />
        </mxCell>
        <mxCell id="UN5E2BRM_m0n_mUQd9ct-85" value="&lt;font style=&quot;font-size: 17px&quot;&gt;Информационная система &quot;Студенческая база знаний. Персоны&quot;. Логическая ER-диаграмма&lt;br&gt;&lt;/font&gt;" style="text;html=1;strokeColor=none;fillColor=none;align=center;verticalAlign=middle;whiteSpace=wrap;rounded=0;fontFamily=Times New Roman;fontSize=10;" parent="1" vertex="1">
          <mxGeometry x="1847.58" y="3151.93" width="274.46" height="116.09" as="geometry" />
        </mxCell>
        <mxCell id="xkobcFin9VNGDIBJeJWe-156" value="group" style="shape=table;startSize=55;container=1;collapsible=1;childLayout=tableLayout;fixedRows=1;rowLines=0;fontStyle=1;align=center;resizeLast=1;fontSize=26;comic=0;strokeWidth=4;" parent="1" vertex="1">
          <mxGeometry x="1681.66" y="988.19" width="497.08" height="460.63" as="geometry" />
        </mxCell>
        <mxCell id="xkobcFin9VNGDIBJeJWe-157" value="" style="shape=tableRow;horizontal=0;startSize=0;swimlaneHead=0;swimlaneBody=0;fillColor=none;collapsible=0;dropTarget=0;points=[[0,0.5],[1,0.5]];portConstraint=eastwest;top=0;left=0;right=0;bottom=1;" parent="xkobcFin9VNGDIBJeJWe-156" vertex="1">
          <mxGeometry y="55" width="497.08" height="100" as="geometry" />
        </mxCell>
        <mxCell id="xkobcFin9VNGDIBJeJWe-158" value="PK" style="shape=partialRectangle;connectable=0;fillColor=none;top=0;left=0;bottom=0;right=0;fontStyle=1;overflow=hidden;fontSize=18;" parent="xkobcFin9VNGDIBJeJWe-157" vertex="1">
          <mxGeometry width="30" height="100" as="geometry">
            <mxRectangle width="30" height="100" as="alternateBounds" />
          </mxGeometry>
        </mxCell>
        <mxCell id="xkobcFin9VNGDIBJeJWe-159" value="id" style="shape=partialRectangle;connectable=0;fillColor=none;top=0;left=0;bottom=0;right=0;align=left;spacingLeft=6;fontStyle=5;overflow=hidden;fontSize=25;" parent="xkobcFin9VNGDIBJeJWe-157" vertex="1">
          <mxGeometry x="30" width="467.08" height="100" as="geometry">
            <mxRectangle width="467.08" height="100" as="alternateBounds" />
          </mxGeometry>
        </mxCell>
        <mxCell id="xkobcFin9VNGDIBJeJWe-160" value="" style="shape=tableRow;horizontal=0;startSize=0;swimlaneHead=0;swimlaneBody=0;fillColor=none;collapsible=0;dropTarget=0;points=[[0,0.5],[1,0.5]];portConstraint=eastwest;top=0;left=0;right=0;bottom=0;" parent="xkobcFin9VNGDIBJeJWe-156" vertex="1">
          <mxGeometry y="155" width="497.08" height="100" as="geometry" />
        </mxCell>
        <mxCell id="xkobcFin9VNGDIBJeJWe-161" value="FK" style="shape=partialRectangle;connectable=0;fillColor=none;top=0;left=0;bottom=0;right=0;fontStyle=0;overflow=hidden;fontSize=18;" parent="xkobcFin9VNGDIBJeJWe-160" vertex="1">
          <mxGeometry width="30" height="100" as="geometry">
            <mxRectangle width="30" height="100" as="alternateBounds" />
          </mxGeometry>
        </mxCell>
        <mxCell id="xkobcFin9VNGDIBJeJWe-162" value="speciality_id" style="shape=partialRectangle;connectable=0;fillColor=none;top=0;left=0;bottom=0;right=0;align=left;spacingLeft=6;fontStyle=0;overflow=hidden;fontSize=25;" parent="xkobcFin9VNGDIBJeJWe-160" vertex="1">
          <mxGeometry x="30" width="467.08" height="100" as="geometry">
            <mxRectangle width="467.08" height="100" as="alternateBounds" />
          </mxGeometry>
        </mxCell>
        <mxCell id="xkobcFin9VNGDIBJeJWe-163" value="" style="shape=tableRow;horizontal=0;startSize=0;swimlaneHead=0;swimlaneBody=0;fillColor=none;collapsible=0;dropTarget=0;points=[[0,0.5],[1,0.5]];portConstraint=eastwest;top=0;left=0;right=0;bottom=0;" parent="xkobcFin9VNGDIBJeJWe-156" vertex="1">
          <mxGeometry y="255" width="497.08" height="100" as="geometry" />
        </mxCell>
        <mxCell id="xkobcFin9VNGDIBJeJWe-164" value="FK" style="shape=partialRectangle;connectable=0;fillColor=none;top=0;left=0;bottom=0;right=0;editable=1;overflow=hidden;fontSize=18;" parent="xkobcFin9VNGDIBJeJWe-163" vertex="1">
          <mxGeometry width="30" height="100" as="geometry">
            <mxRectangle width="30" height="100" as="alternateBounds" />
          </mxGeometry>
        </mxCell>
        <mxCell id="xkobcFin9VNGDIBJeJWe-165" value="university_id" style="shape=partialRectangle;connectable=0;fillColor=none;top=0;left=0;bottom=0;right=0;align=left;spacingLeft=6;overflow=hidden;fontSize=25;" parent="xkobcFin9VNGDIBJeJWe-163" vertex="1">
          <mxGeometry x="30" width="467.08" height="100" as="geometry">
            <mxRectangle width="467.08" height="100" as="alternateBounds" />
          </mxGeometry>
        </mxCell>
        <mxCell id="xkobcFin9VNGDIBJeJWe-166" value="" style="shape=tableRow;horizontal=0;startSize=0;swimlaneHead=0;swimlaneBody=0;fillColor=none;collapsible=0;dropTarget=0;points=[[0,0.5],[1,0.5]];portConstraint=eastwest;top=0;left=0;right=0;bottom=0;" parent="xkobcFin9VNGDIBJeJWe-156" vertex="1">
          <mxGeometry y="355" width="497.08" height="100" as="geometry" />
        </mxCell>
        <mxCell id="xkobcFin9VNGDIBJeJWe-167" value="" style="shape=partialRectangle;connectable=0;fillColor=none;top=0;left=0;bottom=0;right=0;editable=1;overflow=hidden;" parent="xkobcFin9VNGDIBJeJWe-166" vertex="1">
          <mxGeometry width="30" height="100" as="geometry">
            <mxRectangle width="30" height="100" as="alternateBounds" />
          </mxGeometry>
        </mxCell>
        <mxCell id="xkobcFin9VNGDIBJeJWe-168" value="group_name" style="shape=partialRectangle;connectable=0;fillColor=none;top=0;left=0;bottom=0;right=0;align=left;spacingLeft=6;overflow=hidden;fontSize=25;" parent="xkobcFin9VNGDIBJeJWe-166" vertex="1">
          <mxGeometry x="30" width="467.08" height="100" as="geometry">
            <mxRectangle width="467.08" height="100" as="alternateBounds" />
          </mxGeometry>
        </mxCell>
        <mxCell id="xkobcFin9VNGDIBJeJWe-169" value="" style="edgeStyle=entityRelationEdgeStyle;fontSize=12;html=1;endArrow=ERoneToMany;rounded=0;exitX=1;exitY=0.5;exitDx=0;exitDy=0;entryX=0;entryY=0.5;entryDx=0;entryDy=0;strokeWidth=4;" parent="1" source="xkobcFin9VNGDIBJeJWe-287" target="xkobcFin9VNGDIBJeJWe-160" edge="1">
          <mxGeometry width="100" height="100" relative="1" as="geometry">
            <mxPoint x="4302.06909090909" y="4792.64551724138" as="sourcePoint" />
            <mxPoint x="1677.8772727272726" y="1227.0334482758622" as="targetPoint" />
          </mxGeometry>
        </mxCell>
        <mxCell id="xkobcFin9VNGDIBJeJWe-170" value="subject" style="shape=table;startSize=55;container=1;collapsible=1;childLayout=tableLayout;fixedRows=1;rowLines=0;fontStyle=1;align=center;resizeLast=1;fontSize=26;comic=0;strokeWidth=4;" parent="1" vertex="1">
          <mxGeometry x="1703.11" y="196.85" width="479.42" height="455" as="geometry" />
        </mxCell>
        <mxCell id="xkobcFin9VNGDIBJeJWe-171" value="" style="shape=tableRow;horizontal=0;startSize=0;swimlaneHead=0;swimlaneBody=0;fillColor=none;collapsible=0;dropTarget=0;points=[[0,0.5],[1,0.5]];portConstraint=eastwest;top=0;left=0;right=0;bottom=1;" parent="xkobcFin9VNGDIBJeJWe-170" vertex="1">
          <mxGeometry y="55" width="479.42" height="100" as="geometry" />
        </mxCell>
        <mxCell id="xkobcFin9VNGDIBJeJWe-172" value="PK" style="shape=partialRectangle;connectable=0;fillColor=none;top=0;left=0;bottom=0;right=0;fontStyle=1;overflow=hidden;fontSize=18;" parent="xkobcFin9VNGDIBJeJWe-171" vertex="1">
          <mxGeometry width="30" height="100" as="geometry">
            <mxRectangle width="30" height="100" as="alternateBounds" />
          </mxGeometry>
        </mxCell>
        <mxCell id="xkobcFin9VNGDIBJeJWe-173" value="id" style="shape=partialRectangle;connectable=0;fillColor=none;top=0;left=0;bottom=0;right=0;align=left;spacingLeft=6;fontStyle=5;overflow=hidden;fontSize=25;" parent="xkobcFin9VNGDIBJeJWe-171" vertex="1">
          <mxGeometry x="30" width="449.42" height="100" as="geometry">
            <mxRectangle width="449.42" height="100" as="alternateBounds" />
          </mxGeometry>
        </mxCell>
        <mxCell id="xkobcFin9VNGDIBJeJWe-174" value="" style="shape=tableRow;horizontal=0;startSize=0;swimlaneHead=0;swimlaneBody=0;fillColor=none;collapsible=0;dropTarget=0;points=[[0,0.5],[1,0.5]];portConstraint=eastwest;top=0;left=0;right=0;bottom=0;" parent="xkobcFin9VNGDIBJeJWe-170" vertex="1">
          <mxGeometry y="155" width="479.42" height="100" as="geometry" />
        </mxCell>
        <mxCell id="xkobcFin9VNGDIBJeJWe-175" value="FK" style="shape=partialRectangle;connectable=0;fillColor=none;top=0;left=0;bottom=0;right=0;fontStyle=0;overflow=hidden;fontSize=18;" parent="xkobcFin9VNGDIBJeJWe-174" vertex="1">
          <mxGeometry width="30" height="100" as="geometry">
            <mxRectangle width="30" height="100" as="alternateBounds" />
          </mxGeometry>
        </mxCell>
        <mxCell id="xkobcFin9VNGDIBJeJWe-176" value="group_id" style="shape=partialRectangle;connectable=0;fillColor=none;top=0;left=0;bottom=0;right=0;align=left;spacingLeft=6;fontStyle=0;overflow=hidden;fontSize=25;" parent="xkobcFin9VNGDIBJeJWe-174" vertex="1">
          <mxGeometry x="30" width="449.42" height="100" as="geometry">
            <mxRectangle width="449.42" height="100" as="alternateBounds" />
          </mxGeometry>
        </mxCell>
        <mxCell id="xkobcFin9VNGDIBJeJWe-177" value="" style="shape=tableRow;horizontal=0;startSize=0;swimlaneHead=0;swimlaneBody=0;fillColor=none;collapsible=0;dropTarget=0;points=[[0,0.5],[1,0.5]];portConstraint=eastwest;top=0;left=0;right=0;bottom=0;" parent="xkobcFin9VNGDIBJeJWe-170" vertex="1">
          <mxGeometry y="255" width="479.42" height="100" as="geometry" />
        </mxCell>
        <mxCell id="xkobcFin9VNGDIBJeJWe-178" value="" style="shape=partialRectangle;connectable=0;fillColor=none;top=0;left=0;bottom=0;right=0;editable=1;overflow=hidden;" parent="xkobcFin9VNGDIBJeJWe-177" vertex="1">
          <mxGeometry width="30" height="100" as="geometry">
            <mxRectangle width="30" height="100" as="alternateBounds" />
          </mxGeometry>
        </mxCell>
        <mxCell id="xkobcFin9VNGDIBJeJWe-179" value="subject_name" style="shape=partialRectangle;connectable=0;fillColor=none;top=0;left=0;bottom=0;right=0;align=left;spacingLeft=6;overflow=hidden;fontSize=25;" parent="xkobcFin9VNGDIBJeJWe-177" vertex="1">
          <mxGeometry x="30" width="449.42" height="100" as="geometry">
            <mxRectangle width="449.42" height="100" as="alternateBounds" />
          </mxGeometry>
        </mxCell>
        <mxCell id="xkobcFin9VNGDIBJeJWe-180" value="" style="shape=tableRow;horizontal=0;startSize=0;swimlaneHead=0;swimlaneBody=0;fillColor=none;collapsible=0;dropTarget=0;points=[[0,0.5],[1,0.5]];portConstraint=eastwest;top=0;left=0;right=0;bottom=0;" parent="xkobcFin9VNGDIBJeJWe-170" vertex="1">
          <mxGeometry y="355" width="479.42" height="100" as="geometry" />
        </mxCell>
        <mxCell id="xkobcFin9VNGDIBJeJWe-181" value="" style="shape=partialRectangle;connectable=0;fillColor=none;top=0;left=0;bottom=0;right=0;editable=1;overflow=hidden;" parent="xkobcFin9VNGDIBJeJWe-180" vertex="1">
          <mxGeometry width="30" height="100" as="geometry">
            <mxRectangle width="30" height="100" as="alternateBounds" />
          </mxGeometry>
        </mxCell>
        <mxCell id="xkobcFin9VNGDIBJeJWe-182" value="semester" style="shape=partialRectangle;connectable=0;fillColor=none;top=0;left=0;bottom=0;right=0;align=left;spacingLeft=6;overflow=hidden;fontSize=25;" parent="xkobcFin9VNGDIBJeJWe-180" vertex="1">
          <mxGeometry x="30" width="449.42" height="100" as="geometry">
            <mxRectangle width="449.42" height="100" as="alternateBounds" />
          </mxGeometry>
        </mxCell>
        <mxCell id="xkobcFin9VNGDIBJeJWe-183" value="" style="edgeStyle=elbowEdgeStyle;fontSize=12;html=1;endArrow=ERoneToMany;rounded=0;entryX=1;entryY=0.5;entryDx=0;entryDy=0;exitX=1;exitY=0.5;exitDx=0;exitDy=0;strokeWidth=4;" parent="1" source="xkobcFin9VNGDIBJeJWe-157" target="xkobcFin9VNGDIBJeJWe-174" edge="1">
          <mxGeometry width="100" height="100" relative="1" as="geometry">
            <mxPoint x="4950.547261363636" y="2950.5718448275866" as="sourcePoint" />
            <mxPoint x="5202.873397727272" y="2609.3649482758624" as="targetPoint" />
            <Array as="points">
              <mxPoint x="2283.4599999999996" y="715.2231034482759" />
            </Array>
          </mxGeometry>
        </mxCell>
        <mxCell id="xkobcFin9VNGDIBJeJWe-184" value="tutor" style="shape=table;startSize=55;container=1;collapsible=1;childLayout=tableLayout;fixedRows=1;rowLines=0;fontStyle=1;align=center;resizeLast=1;fontSize=26;comic=0;strokeWidth=4;" parent="1" vertex="1">
          <mxGeometry x="192.91" y="110.23999999999998" width="504.65" height="855" as="geometry" />
        </mxCell>
        <mxCell id="xkobcFin9VNGDIBJeJWe-185" value="" style="shape=tableRow;horizontal=0;startSize=0;swimlaneHead=0;swimlaneBody=0;fillColor=none;collapsible=0;dropTarget=0;points=[[0,0.5],[1,0.5]];portConstraint=eastwest;top=0;left=0;right=0;bottom=1;" parent="xkobcFin9VNGDIBJeJWe-184" vertex="1">
          <mxGeometry y="55" width="504.65" height="100" as="geometry" />
        </mxCell>
        <mxCell id="xkobcFin9VNGDIBJeJWe-186" value="PK" style="shape=partialRectangle;connectable=0;fillColor=none;top=0;left=0;bottom=0;right=0;fontStyle=1;overflow=hidden;fontSize=18;" parent="xkobcFin9VNGDIBJeJWe-185" vertex="1">
          <mxGeometry width="30" height="100" as="geometry">
            <mxRectangle width="30" height="100" as="alternateBounds" />
          </mxGeometry>
        </mxCell>
        <mxCell id="xkobcFin9VNGDIBJeJWe-187" value="id" style="shape=partialRectangle;connectable=0;fillColor=none;top=0;left=0;bottom=0;right=0;align=left;spacingLeft=6;fontStyle=5;overflow=hidden;fontSize=25;" parent="xkobcFin9VNGDIBJeJWe-185" vertex="1">
          <mxGeometry x="30" width="474.65" height="100" as="geometry">
            <mxRectangle width="474.65" height="100" as="alternateBounds" />
          </mxGeometry>
        </mxCell>
        <mxCell id="xkobcFin9VNGDIBJeJWe-188" value="" style="shape=tableRow;horizontal=0;startSize=0;swimlaneHead=0;swimlaneBody=0;fillColor=none;collapsible=0;dropTarget=0;points=[[0,0.5],[1,0.5]];portConstraint=eastwest;top=0;left=0;right=0;bottom=0;" parent="xkobcFin9VNGDIBJeJWe-184" vertex="1">
          <mxGeometry y="155" width="504.65" height="100" as="geometry" />
        </mxCell>
        <mxCell id="xkobcFin9VNGDIBJeJWe-189" value="" style="shape=partialRectangle;connectable=0;fillColor=none;top=0;left=0;bottom=0;right=0;editable=1;overflow=hidden;" parent="xkobcFin9VNGDIBJeJWe-188" vertex="1">
          <mxGeometry width="30" height="100" as="geometry">
            <mxRectangle width="30" height="100" as="alternateBounds" />
          </mxGeometry>
        </mxCell>
        <mxCell id="xkobcFin9VNGDIBJeJWe-190" value="first_name" style="shape=partialRectangle;connectable=0;fillColor=none;top=0;left=0;bottom=0;right=0;align=left;spacingLeft=6;overflow=hidden;fontSize=25;" parent="xkobcFin9VNGDIBJeJWe-188" vertex="1">
          <mxGeometry x="30" width="474.65" height="100" as="geometry">
            <mxRectangle width="474.65" height="100" as="alternateBounds" />
          </mxGeometry>
        </mxCell>
        <mxCell id="xkobcFin9VNGDIBJeJWe-191" value="" style="shape=tableRow;horizontal=0;startSize=0;swimlaneHead=0;swimlaneBody=0;fillColor=none;collapsible=0;dropTarget=0;points=[[0,0.5],[1,0.5]];portConstraint=eastwest;top=0;left=0;right=0;bottom=0;" parent="xkobcFin9VNGDIBJeJWe-184" vertex="1">
          <mxGeometry y="255" width="504.65" height="100" as="geometry" />
        </mxCell>
        <mxCell id="xkobcFin9VNGDIBJeJWe-192" value="" style="shape=partialRectangle;connectable=0;fillColor=none;top=0;left=0;bottom=0;right=0;editable=1;overflow=hidden;" parent="xkobcFin9VNGDIBJeJWe-191" vertex="1">
          <mxGeometry width="30" height="100" as="geometry">
            <mxRectangle width="30" height="100" as="alternateBounds" />
          </mxGeometry>
        </mxCell>
        <mxCell id="xkobcFin9VNGDIBJeJWe-193" value="last_name" style="shape=partialRectangle;connectable=0;fillColor=none;top=0;left=0;bottom=0;right=0;align=left;spacingLeft=6;overflow=hidden;fontSize=25;" parent="xkobcFin9VNGDIBJeJWe-191" vertex="1">
          <mxGeometry x="30" width="474.65" height="100" as="geometry">
            <mxRectangle width="474.65" height="100" as="alternateBounds" />
          </mxGeometry>
        </mxCell>
        <mxCell id="xkobcFin9VNGDIBJeJWe-194" value="" style="shape=tableRow;horizontal=0;startSize=0;swimlaneHead=0;swimlaneBody=0;fillColor=none;collapsible=0;dropTarget=0;points=[[0,0.5],[1,0.5]];portConstraint=eastwest;top=0;left=0;right=0;bottom=0;" parent="xkobcFin9VNGDIBJeJWe-184" vertex="1">
          <mxGeometry y="355" width="504.65" height="100" as="geometry" />
        </mxCell>
        <mxCell id="xkobcFin9VNGDIBJeJWe-195" value="" style="shape=partialRectangle;connectable=0;fillColor=none;top=0;left=0;bottom=0;right=0;editable=1;overflow=hidden;" parent="xkobcFin9VNGDIBJeJWe-194" vertex="1">
          <mxGeometry width="30" height="100" as="geometry">
            <mxRectangle width="30" height="100" as="alternateBounds" />
          </mxGeometry>
        </mxCell>
        <mxCell id="xkobcFin9VNGDIBJeJWe-196" value="patronymic" style="shape=partialRectangle;connectable=0;fillColor=none;top=0;left=0;bottom=0;right=0;align=left;spacingLeft=6;overflow=hidden;fontSize=25;" parent="xkobcFin9VNGDIBJeJWe-194" vertex="1">
          <mxGeometry x="30" width="474.65" height="100" as="geometry">
            <mxRectangle width="474.65" height="100" as="alternateBounds" />
          </mxGeometry>
        </mxCell>
        <mxCell id="xkobcFin9VNGDIBJeJWe-197" value="" style="shape=tableRow;horizontal=0;startSize=0;swimlaneHead=0;swimlaneBody=0;fillColor=none;collapsible=0;dropTarget=0;points=[[0,0.5],[1,0.5]];portConstraint=eastwest;top=0;left=0;right=0;bottom=0;" parent="xkobcFin9VNGDIBJeJWe-184" vertex="1">
          <mxGeometry y="455" width="504.65" height="100" as="geometry" />
        </mxCell>
        <mxCell id="xkobcFin9VNGDIBJeJWe-198" value="" style="shape=partialRectangle;connectable=0;fillColor=none;top=0;left=0;bottom=0;right=0;editable=1;overflow=hidden;" parent="xkobcFin9VNGDIBJeJWe-197" vertex="1">
          <mxGeometry width="30" height="100" as="geometry">
            <mxRectangle width="30" height="100" as="alternateBounds" />
          </mxGeometry>
        </mxCell>
        <mxCell id="xkobcFin9VNGDIBJeJWe-199" value="email" style="shape=partialRectangle;connectable=0;fillColor=none;top=0;left=0;bottom=0;right=0;align=left;spacingLeft=6;overflow=hidden;fontSize=25;" parent="xkobcFin9VNGDIBJeJWe-197" vertex="1">
          <mxGeometry x="30" width="474.65" height="100" as="geometry">
            <mxRectangle width="474.65" height="100" as="alternateBounds" />
          </mxGeometry>
        </mxCell>
        <mxCell id="xkobcFin9VNGDIBJeJWe-200" value="" style="shape=tableRow;horizontal=0;startSize=0;swimlaneHead=0;swimlaneBody=0;fillColor=none;collapsible=0;dropTarget=0;points=[[0,0.5],[1,0.5]];portConstraint=eastwest;top=0;left=0;right=0;bottom=0;" parent="xkobcFin9VNGDIBJeJWe-184" vertex="1">
          <mxGeometry y="555" width="504.65" height="100" as="geometry" />
        </mxCell>
        <mxCell id="xkobcFin9VNGDIBJeJWe-201" value="" style="shape=partialRectangle;connectable=0;fillColor=none;top=0;left=0;bottom=0;right=0;editable=1;overflow=hidden;" parent="xkobcFin9VNGDIBJeJWe-200" vertex="1">
          <mxGeometry width="30" height="100" as="geometry">
            <mxRectangle width="30" height="100" as="alternateBounds" />
          </mxGeometry>
        </mxCell>
        <mxCell id="xkobcFin9VNGDIBJeJWe-202" value="phone" style="shape=partialRectangle;connectable=0;fillColor=none;top=0;left=0;bottom=0;right=0;align=left;spacingLeft=6;overflow=hidden;fontSize=25;" parent="xkobcFin9VNGDIBJeJWe-200" vertex="1">
          <mxGeometry x="30" width="474.65" height="100" as="geometry">
            <mxRectangle width="474.65" height="100" as="alternateBounds" />
          </mxGeometry>
        </mxCell>
        <mxCell id="xkobcFin9VNGDIBJeJWe-203" value="" style="shape=tableRow;horizontal=0;startSize=0;swimlaneHead=0;swimlaneBody=0;fillColor=none;collapsible=0;dropTarget=0;points=[[0,0.5],[1,0.5]];portConstraint=eastwest;top=0;left=0;right=0;bottom=0;" parent="xkobcFin9VNGDIBJeJWe-184" vertex="1">
          <mxGeometry y="655" width="504.65" height="100" as="geometry" />
        </mxCell>
        <mxCell id="xkobcFin9VNGDIBJeJWe-204" value="" style="shape=partialRectangle;connectable=0;fillColor=none;top=0;left=0;bottom=0;right=0;editable=1;overflow=hidden;" parent="xkobcFin9VNGDIBJeJWe-203" vertex="1">
          <mxGeometry width="30" height="100" as="geometry">
            <mxRectangle width="30" height="100" as="alternateBounds" />
          </mxGeometry>
        </mxCell>
        <mxCell id="xkobcFin9VNGDIBJeJWe-205" value="link" style="shape=partialRectangle;connectable=0;fillColor=none;top=0;left=0;bottom=0;right=0;align=left;spacingLeft=6;overflow=hidden;fontSize=25;" parent="xkobcFin9VNGDIBJeJWe-203" vertex="1">
          <mxGeometry x="30" width="474.65" height="100" as="geometry">
            <mxRectangle width="474.65" height="100" as="alternateBounds" />
          </mxGeometry>
        </mxCell>
        <mxCell id="xkobcFin9VNGDIBJeJWe-206" value="" style="shape=tableRow;horizontal=0;startSize=0;swimlaneHead=0;swimlaneBody=0;fillColor=none;collapsible=0;dropTarget=0;points=[[0,0.5],[1,0.5]];portConstraint=eastwest;top=0;left=0;right=0;bottom=0;" parent="xkobcFin9VNGDIBJeJWe-184" vertex="1">
          <mxGeometry y="755" width="504.65" height="100" as="geometry" />
        </mxCell>
        <mxCell id="xkobcFin9VNGDIBJeJWe-207" value="" style="shape=partialRectangle;connectable=0;fillColor=none;top=0;left=0;bottom=0;right=0;fontStyle=0;overflow=hidden;" parent="xkobcFin9VNGDIBJeJWe-206" vertex="1">
          <mxGeometry width="30" height="100" as="geometry">
            <mxRectangle width="30" height="100" as="alternateBounds" />
          </mxGeometry>
        </mxCell>
        <mxCell id="xkobcFin9VNGDIBJeJWe-208" value="is_working" style="shape=partialRectangle;connectable=0;fillColor=none;top=0;left=0;bottom=0;right=0;align=left;spacingLeft=6;fontStyle=0;overflow=hidden;fontSize=25;" parent="xkobcFin9VNGDIBJeJWe-206" vertex="1">
          <mxGeometry x="30" width="474.65" height="100" as="geometry">
            <mxRectangle width="474.65" height="100" as="alternateBounds" />
          </mxGeometry>
        </mxCell>
        <mxCell id="xkobcFin9VNGDIBJeJWe-209" value="account" style="shape=table;startSize=55;container=1;collapsible=1;childLayout=tableLayout;fixedRows=1;rowLines=0;fontStyle=1;align=center;resizeLast=1;fontSize=26;comic=0;strokeWidth=4;" parent="1" vertex="1">
          <mxGeometry x="895.6700000000001" y="1821.9800000000002" width="555.12" height="456.69" as="geometry">
            <mxRectangle x="370" y="990" width="80" height="30" as="alternateBounds" />
          </mxGeometry>
        </mxCell>
        <mxCell id="xkobcFin9VNGDIBJeJWe-210" value="" style="shape=tableRow;horizontal=0;startSize=0;swimlaneHead=0;swimlaneBody=0;fillColor=none;collapsible=0;dropTarget=0;points=[[0,0.5],[1,0.5]];portConstraint=eastwest;top=0;left=0;right=0;bottom=1;" parent="xkobcFin9VNGDIBJeJWe-209" vertex="1">
          <mxGeometry y="55" width="555.12" height="100" as="geometry" />
        </mxCell>
        <mxCell id="xkobcFin9VNGDIBJeJWe-211" value="PK" style="shape=partialRectangle;connectable=0;fillColor=none;top=0;left=0;bottom=0;right=0;fontStyle=1;overflow=hidden;fontSize=18;" parent="xkobcFin9VNGDIBJeJWe-210" vertex="1">
          <mxGeometry width="30" height="100" as="geometry">
            <mxRectangle width="30" height="100" as="alternateBounds" />
          </mxGeometry>
        </mxCell>
        <mxCell id="xkobcFin9VNGDIBJeJWe-212" value="id" style="shape=partialRectangle;connectable=0;fillColor=none;top=0;left=0;bottom=0;right=0;align=left;spacingLeft=6;fontStyle=5;overflow=hidden;fontSize=25;" parent="xkobcFin9VNGDIBJeJWe-210" vertex="1">
          <mxGeometry x="30" width="525.12" height="100" as="geometry">
            <mxRectangle width="525.12" height="100" as="alternateBounds" />
          </mxGeometry>
        </mxCell>
        <mxCell id="xkobcFin9VNGDIBJeJWe-213" value="" style="shape=tableRow;horizontal=0;startSize=0;swimlaneHead=0;swimlaneBody=0;fillColor=none;collapsible=0;dropTarget=0;points=[[0,0.5],[1,0.5]];portConstraint=eastwest;top=0;left=0;right=0;bottom=0;" parent="xkobcFin9VNGDIBJeJWe-209" vertex="1">
          <mxGeometry y="155" width="555.12" height="100" as="geometry" />
        </mxCell>
        <mxCell id="xkobcFin9VNGDIBJeJWe-214" value="" style="shape=partialRectangle;connectable=0;fillColor=none;top=0;left=0;bottom=0;right=0;editable=1;overflow=hidden;" parent="xkobcFin9VNGDIBJeJWe-213" vertex="1">
          <mxGeometry width="30" height="100" as="geometry">
            <mxRectangle width="30" height="100" as="alternateBounds" />
          </mxGeometry>
        </mxCell>
        <mxCell id="xkobcFin9VNGDIBJeJWe-215" value="email" style="shape=partialRectangle;connectable=0;fillColor=none;top=0;left=0;bottom=0;right=0;align=left;spacingLeft=6;overflow=hidden;fontSize=25;" parent="xkobcFin9VNGDIBJeJWe-213" vertex="1">
          <mxGeometry x="30" width="525.12" height="100" as="geometry">
            <mxRectangle width="525.12" height="100" as="alternateBounds" />
          </mxGeometry>
        </mxCell>
        <mxCell id="xkobcFin9VNGDIBJeJWe-216" value="" style="shape=tableRow;horizontal=0;startSize=0;swimlaneHead=0;swimlaneBody=0;fillColor=none;collapsible=0;dropTarget=0;points=[[0,0.5],[1,0.5]];portConstraint=eastwest;top=0;left=0;right=0;bottom=0;" parent="xkobcFin9VNGDIBJeJWe-209" vertex="1">
          <mxGeometry y="255" width="555.12" height="100" as="geometry" />
        </mxCell>
        <mxCell id="xkobcFin9VNGDIBJeJWe-217" value="" style="shape=partialRectangle;connectable=0;fillColor=none;top=0;left=0;bottom=0;right=0;editable=1;overflow=hidden;" parent="xkobcFin9VNGDIBJeJWe-216" vertex="1">
          <mxGeometry width="30" height="100" as="geometry">
            <mxRectangle width="30" height="100" as="alternateBounds" />
          </mxGeometry>
        </mxCell>
        <mxCell id="xkobcFin9VNGDIBJeJWe-218" value="password_hash" style="shape=partialRectangle;connectable=0;fillColor=none;top=0;left=0;bottom=0;right=0;align=left;spacingLeft=6;overflow=hidden;fontSize=25;" parent="xkobcFin9VNGDIBJeJWe-216" vertex="1">
          <mxGeometry x="30" width="525.12" height="100" as="geometry">
            <mxRectangle width="525.12" height="100" as="alternateBounds" />
          </mxGeometry>
        </mxCell>
        <mxCell id="xkobcFin9VNGDIBJeJWe-219" value="" style="shape=tableRow;horizontal=0;startSize=0;swimlaneHead=0;swimlaneBody=0;fillColor=none;collapsible=0;dropTarget=0;points=[[0,0.5],[1,0.5]];portConstraint=eastwest;top=0;left=0;right=0;bottom=0;" parent="xkobcFin9VNGDIBJeJWe-209" vertex="1">
          <mxGeometry y="355" width="555.12" height="100" as="geometry" />
        </mxCell>
        <mxCell id="xkobcFin9VNGDIBJeJWe-220" value="" style="shape=partialRectangle;connectable=0;fillColor=none;top=0;left=0;bottom=0;right=0;editable=1;overflow=hidden;" parent="xkobcFin9VNGDIBJeJWe-219" vertex="1">
          <mxGeometry width="30" height="100" as="geometry">
            <mxRectangle width="30" height="100" as="alternateBounds" />
          </mxGeometry>
        </mxCell>
        <mxCell id="xkobcFin9VNGDIBJeJWe-221" value="last_active_date" style="shape=partialRectangle;connectable=0;fillColor=none;top=0;left=0;bottom=0;right=0;align=left;spacingLeft=6;overflow=hidden;fontSize=25;" parent="xkobcFin9VNGDIBJeJWe-219" vertex="1">
          <mxGeometry x="30" width="525.12" height="100" as="geometry">
            <mxRectangle width="525.12" height="100" as="alternateBounds" />
          </mxGeometry>
        </mxCell>
        <mxCell id="xkobcFin9VNGDIBJeJWe-222" value="user" style="shape=table;startSize=55;container=1;collapsible=1;childLayout=tableLayout;fixedRows=1;rowLines=0;fontStyle=1;align=center;resizeLast=1;fontSize=26;comic=0;strokeWidth=4;" parent="1" vertex="1">
          <mxGeometry x="1703.11" y="1921.3600000000001" width="454.19" height="855" as="geometry" />
        </mxCell>
        <mxCell id="xkobcFin9VNGDIBJeJWe-223" value="" style="shape=tableRow;horizontal=0;startSize=0;swimlaneHead=0;swimlaneBody=0;fillColor=none;collapsible=0;dropTarget=0;points=[[0,0.5],[1,0.5]];portConstraint=eastwest;top=0;left=0;right=0;bottom=1;" parent="xkobcFin9VNGDIBJeJWe-222" vertex="1">
          <mxGeometry y="55" width="454.19" height="100" as="geometry" />
        </mxCell>
        <mxCell id="xkobcFin9VNGDIBJeJWe-224" value="PK" style="shape=partialRectangle;connectable=0;fillColor=none;top=0;left=0;bottom=0;right=0;fontStyle=1;overflow=hidden;fontSize=18;" parent="xkobcFin9VNGDIBJeJWe-223" vertex="1">
          <mxGeometry width="30" height="100" as="geometry">
            <mxRectangle width="30" height="100" as="alternateBounds" />
          </mxGeometry>
        </mxCell>
        <mxCell id="xkobcFin9VNGDIBJeJWe-225" value="id" style="shape=partialRectangle;connectable=0;fillColor=none;top=0;left=0;bottom=0;right=0;align=left;spacingLeft=6;fontStyle=5;overflow=hidden;fontSize=25;" parent="xkobcFin9VNGDIBJeJWe-223" vertex="1">
          <mxGeometry x="30" width="424.19" height="100" as="geometry">
            <mxRectangle width="424.19" height="100" as="alternateBounds" />
          </mxGeometry>
        </mxCell>
        <mxCell id="xkobcFin9VNGDIBJeJWe-226" value="" style="shape=tableRow;horizontal=0;startSize=0;swimlaneHead=0;swimlaneBody=0;fillColor=none;collapsible=0;dropTarget=0;points=[[0,0.5],[1,0.5]];portConstraint=eastwest;top=0;left=0;right=0;bottom=0;" parent="xkobcFin9VNGDIBJeJWe-222" vertex="1">
          <mxGeometry y="155" width="454.19" height="100" as="geometry" />
        </mxCell>
        <mxCell id="xkobcFin9VNGDIBJeJWe-227" value="FK" style="shape=partialRectangle;connectable=0;fillColor=none;top=0;left=0;bottom=0;right=0;fontStyle=0;overflow=hidden;fontSize=18;" parent="xkobcFin9VNGDIBJeJWe-226" vertex="1">
          <mxGeometry width="30" height="100" as="geometry">
            <mxRectangle width="30" height="100" as="alternateBounds" />
          </mxGeometry>
        </mxCell>
        <mxCell id="xkobcFin9VNGDIBJeJWe-228" value="group_id" style="shape=partialRectangle;connectable=0;fillColor=none;top=0;left=0;bottom=0;right=0;align=left;spacingLeft=6;fontStyle=0;overflow=hidden;fontSize=25;" parent="xkobcFin9VNGDIBJeJWe-226" vertex="1">
          <mxGeometry x="30" width="424.19" height="100" as="geometry">
            <mxRectangle width="424.19" height="100" as="alternateBounds" />
          </mxGeometry>
        </mxCell>
        <mxCell id="xkobcFin9VNGDIBJeJWe-229" value="" style="shape=tableRow;horizontal=0;startSize=0;swimlaneHead=0;swimlaneBody=0;fillColor=none;collapsible=0;dropTarget=0;points=[[0,0.5],[1,0.5]];portConstraint=eastwest;top=0;left=0;right=0;bottom=0;" parent="xkobcFin9VNGDIBJeJWe-222" vertex="1">
          <mxGeometry y="255" width="454.19" height="100" as="geometry" />
        </mxCell>
        <mxCell id="xkobcFin9VNGDIBJeJWe-230" value="FK" style="shape=partialRectangle;connectable=0;fillColor=none;top=0;left=0;bottom=0;right=0;fontStyle=0;overflow=hidden;fontSize=18;" parent="xkobcFin9VNGDIBJeJWe-229" vertex="1">
          <mxGeometry width="30" height="100" as="geometry">
            <mxRectangle width="30" height="100" as="alternateBounds" />
          </mxGeometry>
        </mxCell>
        <mxCell id="xkobcFin9VNGDIBJeJWe-231" value="account_id" style="shape=partialRectangle;connectable=0;fillColor=none;top=0;left=0;bottom=0;right=0;align=left;spacingLeft=6;fontStyle=0;overflow=hidden;fontSize=25;" parent="xkobcFin9VNGDIBJeJWe-229" vertex="1">
          <mxGeometry x="30" width="424.19" height="100" as="geometry">
            <mxRectangle width="424.19" height="100" as="alternateBounds" />
          </mxGeometry>
        </mxCell>
        <mxCell id="xkobcFin9VNGDIBJeJWe-232" value="" style="shape=tableRow;horizontal=0;startSize=0;swimlaneHead=0;swimlaneBody=0;fillColor=none;collapsible=0;dropTarget=0;points=[[0,0.5],[1,0.5]];portConstraint=eastwest;top=0;left=0;right=0;bottom=0;" parent="xkobcFin9VNGDIBJeJWe-222" vertex="1">
          <mxGeometry y="355" width="454.19" height="100" as="geometry" />
        </mxCell>
        <mxCell id="xkobcFin9VNGDIBJeJWe-233" value="FK" style="shape=partialRectangle;connectable=0;fillColor=none;top=0;left=0;bottom=0;right=0;fontStyle=0;overflow=hidden;fontSize=18;" parent="xkobcFin9VNGDIBJeJWe-232" vertex="1">
          <mxGeometry width="30" height="100" as="geometry">
            <mxRectangle width="30" height="100" as="alternateBounds" />
          </mxGeometry>
        </mxCell>
        <mxCell id="xkobcFin9VNGDIBJeJWe-234" value="role_id, uuid" style="shape=partialRectangle;connectable=0;fillColor=none;top=0;left=0;bottom=0;right=0;align=left;spacingLeft=6;fontStyle=0;overflow=hidden;fontSize=25;" parent="xkobcFin9VNGDIBJeJWe-232" vertex="1">
          <mxGeometry x="30" width="424.19" height="100" as="geometry">
            <mxRectangle width="424.19" height="100" as="alternateBounds" />
          </mxGeometry>
        </mxCell>
        <mxCell id="xkobcFin9VNGDIBJeJWe-235" value="" style="shape=tableRow;horizontal=0;startSize=0;swimlaneHead=0;swimlaneBody=0;fillColor=none;collapsible=0;dropTarget=0;points=[[0,0.5],[1,0.5]];portConstraint=eastwest;top=0;left=0;right=0;bottom=0;" parent="xkobcFin9VNGDIBJeJWe-222" vertex="1">
          <mxGeometry y="455" width="454.19" height="100" as="geometry" />
        </mxCell>
        <mxCell id="xkobcFin9VNGDIBJeJWe-236" value="FK" style="shape=partialRectangle;connectable=0;fillColor=none;top=0;left=0;bottom=0;right=0;fontStyle=0;overflow=hidden;fontSize=18;" parent="xkobcFin9VNGDIBJeJWe-235" vertex="1">
          <mxGeometry width="30" height="100" as="geometry">
            <mxRectangle width="30" height="100" as="alternateBounds" />
          </mxGeometry>
        </mxCell>
        <mxCell id="xkobcFin9VNGDIBJeJWe-237" value="sex" style="shape=partialRectangle;connectable=0;fillColor=none;top=0;left=0;bottom=0;right=0;align=left;spacingLeft=6;fontStyle=0;overflow=hidden;fontSize=25;" parent="xkobcFin9VNGDIBJeJWe-235" vertex="1">
          <mxGeometry x="30" width="424.19" height="100" as="geometry">
            <mxRectangle width="424.19" height="100" as="alternateBounds" />
          </mxGeometry>
        </mxCell>
        <mxCell id="xkobcFin9VNGDIBJeJWe-238" value="" style="shape=tableRow;horizontal=0;startSize=0;swimlaneHead=0;swimlaneBody=0;fillColor=none;collapsible=0;dropTarget=0;points=[[0,0.5],[1,0.5]];portConstraint=eastwest;top=0;left=0;right=0;bottom=0;" parent="xkobcFin9VNGDIBJeJWe-222" vertex="1">
          <mxGeometry y="555" width="454.19" height="100" as="geometry" />
        </mxCell>
        <mxCell id="xkobcFin9VNGDIBJeJWe-239" value="" style="shape=partialRectangle;connectable=0;fillColor=none;top=0;left=0;bottom=0;right=0;editable=1;overflow=hidden;" parent="xkobcFin9VNGDIBJeJWe-238" vertex="1">
          <mxGeometry width="30" height="100" as="geometry">
            <mxRectangle width="30" height="100" as="alternateBounds" />
          </mxGeometry>
        </mxCell>
        <mxCell id="xkobcFin9VNGDIBJeJWe-240" value="first_name" style="shape=partialRectangle;connectable=0;fillColor=none;top=0;left=0;bottom=0;right=0;align=left;spacingLeft=6;overflow=hidden;fontSize=25;" parent="xkobcFin9VNGDIBJeJWe-238" vertex="1">
          <mxGeometry x="30" width="424.19" height="100" as="geometry">
            <mxRectangle width="424.19" height="100" as="alternateBounds" />
          </mxGeometry>
        </mxCell>
        <mxCell id="xkobcFin9VNGDIBJeJWe-241" value="" style="shape=tableRow;horizontal=0;startSize=0;swimlaneHead=0;swimlaneBody=0;fillColor=none;collapsible=0;dropTarget=0;points=[[0,0.5],[1,0.5]];portConstraint=eastwest;top=0;left=0;right=0;bottom=0;" parent="xkobcFin9VNGDIBJeJWe-222" vertex="1">
          <mxGeometry y="655" width="454.19" height="100" as="geometry" />
        </mxCell>
        <mxCell id="xkobcFin9VNGDIBJeJWe-242" value="" style="shape=partialRectangle;connectable=0;fillColor=none;top=0;left=0;bottom=0;right=0;editable=1;overflow=hidden;" parent="xkobcFin9VNGDIBJeJWe-241" vertex="1">
          <mxGeometry width="30" height="100" as="geometry">
            <mxRectangle width="30" height="100" as="alternateBounds" />
          </mxGeometry>
        </mxCell>
        <mxCell id="xkobcFin9VNGDIBJeJWe-243" value="last_name" style="shape=partialRectangle;connectable=0;fillColor=none;top=0;left=0;bottom=0;right=0;align=left;spacingLeft=6;overflow=hidden;fontSize=25;" parent="xkobcFin9VNGDIBJeJWe-241" vertex="1">
          <mxGeometry x="30" width="424.19" height="100" as="geometry">
            <mxRectangle width="424.19" height="100" as="alternateBounds" />
          </mxGeometry>
        </mxCell>
        <mxCell id="xkobcFin9VNGDIBJeJWe-244" value="" style="shape=tableRow;horizontal=0;startSize=0;swimlaneHead=0;swimlaneBody=0;fillColor=none;collapsible=0;dropTarget=0;points=[[0,0.5],[1,0.5]];portConstraint=eastwest;top=0;left=0;right=0;bottom=0;" parent="xkobcFin9VNGDIBJeJWe-222" vertex="1">
          <mxGeometry y="755" width="454.19" height="100" as="geometry" />
        </mxCell>
        <mxCell id="xkobcFin9VNGDIBJeJWe-245" value="" style="shape=partialRectangle;connectable=0;fillColor=none;top=0;left=0;bottom=0;right=0;editable=1;overflow=hidden;" parent="xkobcFin9VNGDIBJeJWe-244" vertex="1">
          <mxGeometry width="30" height="100" as="geometry">
            <mxRectangle width="30" height="100" as="alternateBounds" />
          </mxGeometry>
        </mxCell>
        <mxCell id="xkobcFin9VNGDIBJeJWe-246" value="avatar_link" style="shape=partialRectangle;connectable=0;fillColor=none;top=0;left=0;bottom=0;right=0;align=left;spacingLeft=6;overflow=hidden;fontSize=25;" parent="xkobcFin9VNGDIBJeJWe-244" vertex="1">
          <mxGeometry x="30" width="424.19" height="100" as="geometry">
            <mxRectangle width="424.19" height="100" as="alternateBounds" />
          </mxGeometry>
        </mxCell>
        <mxCell id="xkobcFin9VNGDIBJeJWe-247" value="role" style="shape=table;startSize=55;container=1;collapsible=1;childLayout=tableLayout;fixedRows=1;rowLines=0;fontStyle=1;align=center;resizeLast=1;fontSize=26;comic=0;strokeWidth=4;" parent="1" vertex="1">
          <mxGeometry x="326.77" y="2425.1899999999996" width="580.35" height="360.4840000000005" as="geometry">
            <mxRectangle x="370" y="1240" width="50" height="30" as="alternateBounds" />
          </mxGeometry>
        </mxCell>
        <mxCell id="xkobcFin9VNGDIBJeJWe-248" value="" style="shape=tableRow;horizontal=0;startSize=0;swimlaneHead=0;swimlaneBody=0;fillColor=none;collapsible=0;dropTarget=0;points=[[0,0.5],[1,0.5]];portConstraint=eastwest;top=0;left=0;right=0;bottom=1;" parent="xkobcFin9VNGDIBJeJWe-247" vertex="1">
          <mxGeometry y="55" width="580.35" height="100" as="geometry" />
        </mxCell>
        <mxCell id="xkobcFin9VNGDIBJeJWe-249" value="PK" style="shape=partialRectangle;connectable=0;fillColor=none;top=0;left=0;bottom=0;right=0;fontStyle=1;overflow=hidden;fontSize=18;" parent="xkobcFin9VNGDIBJeJWe-248" vertex="1">
          <mxGeometry width="30" height="100" as="geometry">
            <mxRectangle width="30" height="100" as="alternateBounds" />
          </mxGeometry>
        </mxCell>
        <mxCell id="xkobcFin9VNGDIBJeJWe-250" value="id" style="shape=partialRectangle;connectable=0;fillColor=none;top=0;left=0;bottom=0;right=0;align=left;spacingLeft=6;fontStyle=5;overflow=hidden;fontSize=25;" parent="xkobcFin9VNGDIBJeJWe-248" vertex="1">
          <mxGeometry x="30" width="550.35" height="100" as="geometry">
            <mxRectangle width="550.35" height="100" as="alternateBounds" />
          </mxGeometry>
        </mxCell>
        <mxCell id="xkobcFin9VNGDIBJeJWe-251" value="" style="shape=tableRow;horizontal=0;startSize=0;swimlaneHead=0;swimlaneBody=0;fillColor=none;collapsible=0;dropTarget=0;points=[[0,0.5],[1,0.5]];portConstraint=eastwest;top=0;left=0;right=0;bottom=0;" parent="xkobcFin9VNGDIBJeJWe-247" vertex="1">
          <mxGeometry y="155" width="580.35" height="105" as="geometry" />
        </mxCell>
        <mxCell id="xkobcFin9VNGDIBJeJWe-252" value="" style="shape=partialRectangle;connectable=0;fillColor=none;top=0;left=0;bottom=0;right=0;editable=1;overflow=hidden;" parent="xkobcFin9VNGDIBJeJWe-251" vertex="1">
          <mxGeometry width="30" height="105" as="geometry">
            <mxRectangle width="30" height="105" as="alternateBounds" />
          </mxGeometry>
        </mxCell>
        <mxCell id="xkobcFin9VNGDIBJeJWe-253" value="role_name" style="shape=partialRectangle;connectable=0;fillColor=none;top=0;left=0;bottom=0;right=0;align=left;spacingLeft=6;overflow=hidden;fontSize=25;" parent="xkobcFin9VNGDIBJeJWe-251" vertex="1">
          <mxGeometry x="30" width="550.35" height="105" as="geometry">
            <mxRectangle width="550.35" height="105" as="alternateBounds" />
          </mxGeometry>
        </mxCell>
        <mxCell id="xkobcFin9VNGDIBJeJWe-254" value="" style="shape=tableRow;horizontal=0;startSize=0;swimlaneHead=0;swimlaneBody=0;fillColor=none;collapsible=0;dropTarget=0;points=[[0,0.5],[1,0.5]];portConstraint=eastwest;top=0;left=0;right=0;bottom=0;" parent="xkobcFin9VNGDIBJeJWe-247" vertex="1">
          <mxGeometry y="260" width="580.35" height="100" as="geometry" />
        </mxCell>
        <mxCell id="xkobcFin9VNGDIBJeJWe-255" value="" style="shape=partialRectangle;connectable=0;fillColor=none;top=0;left=0;bottom=0;right=0;editable=1;overflow=hidden;" parent="xkobcFin9VNGDIBJeJWe-254" vertex="1">
          <mxGeometry width="30" height="100" as="geometry">
            <mxRectangle width="30" height="100" as="alternateBounds" />
          </mxGeometry>
        </mxCell>
        <mxCell id="xkobcFin9VNGDIBJeJWe-256" value="role_description" style="shape=partialRectangle;connectable=0;fillColor=none;top=0;left=0;bottom=0;right=0;align=left;spacingLeft=6;overflow=hidden;fontSize=25;" parent="xkobcFin9VNGDIBJeJWe-254" vertex="1">
          <mxGeometry x="30" width="550.35" height="100" as="geometry">
            <mxRectangle width="550.35" height="100" as="alternateBounds" />
          </mxGeometry>
        </mxCell>
        <mxCell id="xkobcFin9VNGDIBJeJWe-257" value="" style="edgeStyle=entityRelationEdgeStyle;fontSize=12;html=1;endArrow=ERoneToMany;rounded=0;exitX=1;exitY=0.5;exitDx=0;exitDy=0;entryX=0;entryY=0.5;entryDx=0;entryDy=0;strokeWidth=4;" parent="1" source="xkobcFin9VNGDIBJeJWe-248" target="xkobcFin9VNGDIBJeJWe-232" edge="1">
          <mxGeometry width="100" height="100" relative="1" as="geometry">
            <mxPoint x="3991.707943181818" y="4250.39951724138" as="sourcePoint" />
            <mxPoint x="4244.034079545454" y="3909.1926206896546" as="targetPoint" />
          </mxGeometry>
        </mxCell>
        <mxCell id="xkobcFin9VNGDIBJeJWe-258" value="" style="edgeStyle=entityRelationEdgeStyle;fontSize=12;html=1;endArrow=ERmandOne;startArrow=ERmandOne;rounded=0;entryX=0;entryY=0.5;entryDx=0;entryDy=0;exitX=1;exitY=0.5;exitDx=0;exitDy=0;strokeWidth=4;" parent="1" source="xkobcFin9VNGDIBJeJWe-210" target="xkobcFin9VNGDIBJeJWe-229" edge="1">
          <mxGeometry width="100" height="100" relative="1" as="geometry">
            <mxPoint x="2174.959761363636" y="4762.209862068966" as="sourcePoint" />
            <mxPoint x="2427.285897727272" y="4421.002965517241" as="targetPoint" />
          </mxGeometry>
        </mxCell>
        <mxCell id="xkobcFin9VNGDIBJeJWe-259" value="" style="edgeStyle=elbowEdgeStyle;fontSize=12;html=1;endArrow=ERoneToMany;rounded=0;entryX=1;entryY=0.5;entryDx=0;entryDy=0;exitX=1;exitY=0.5;exitDx=0;exitDy=0;strokeWidth=4;" parent="1" source="xkobcFin9VNGDIBJeJWe-157" target="xkobcFin9VNGDIBJeJWe-226" edge="1">
          <mxGeometry width="100" height="100" relative="1" as="geometry">
            <mxPoint x="3562.753511363636" y="3478.9989655172412" as="sourcePoint" />
            <mxPoint x="3815.079647727272" y="3137.792068965517" as="targetPoint" />
            <Array as="points">
              <mxPoint x="2283.4599999999996" y="1602.3610344827587" />
            </Array>
          </mxGeometry>
        </mxCell>
        <mxCell id="xkobcFin9VNGDIBJeJWe-260" value="invite_codes" style="shape=table;startSize=55;container=1;collapsible=1;childLayout=tableLayout;fixedRows=1;rowLines=0;fontStyle=1;align=center;resizeLast=1;fontSize=26;comic=0;strokeWidth=4;" parent="1" vertex="1">
          <mxGeometry x="113.46" y="1543.3000000000002" width="529.88" height="559.05" as="geometry">
            <mxRectangle x="60" y="975" width="110" height="30" as="alternateBounds" />
          </mxGeometry>
        </mxCell>
        <mxCell id="xkobcFin9VNGDIBJeJWe-261" value="" style="shape=tableRow;horizontal=0;startSize=0;swimlaneHead=0;swimlaneBody=0;fillColor=none;collapsible=0;dropTarget=0;points=[[0,0.5],[1,0.5]];portConstraint=eastwest;top=0;left=0;right=0;bottom=1;" parent="xkobcFin9VNGDIBJeJWe-260" vertex="1">
          <mxGeometry y="55" width="529.88" height="100" as="geometry" />
        </mxCell>
        <mxCell id="xkobcFin9VNGDIBJeJWe-262" value="PK" style="shape=partialRectangle;connectable=0;fillColor=none;top=0;left=0;bottom=0;right=0;fontStyle=1;overflow=hidden;fontSize=18;" parent="xkobcFin9VNGDIBJeJWe-261" vertex="1">
          <mxGeometry width="30" height="100" as="geometry">
            <mxRectangle width="30" height="100" as="alternateBounds" />
          </mxGeometry>
        </mxCell>
        <mxCell id="xkobcFin9VNGDIBJeJWe-263" value="id" style="shape=partialRectangle;connectable=0;fillColor=none;top=0;left=0;bottom=0;right=0;align=left;spacingLeft=6;fontStyle=5;overflow=hidden;fontSize=25;" parent="xkobcFin9VNGDIBJeJWe-261" vertex="1">
          <mxGeometry x="30" width="499.88" height="100" as="geometry">
            <mxRectangle width="499.88" height="100" as="alternateBounds" />
          </mxGeometry>
        </mxCell>
        <mxCell id="xkobcFin9VNGDIBJeJWe-264" value="" style="shape=tableRow;horizontal=0;startSize=0;swimlaneHead=0;swimlaneBody=0;fillColor=none;collapsible=0;dropTarget=0;points=[[0,0.5],[1,0.5]];portConstraint=eastwest;top=0;left=0;right=0;bottom=0;" parent="xkobcFin9VNGDIBJeJWe-260" vertex="1">
          <mxGeometry y="155" width="529.88" height="100" as="geometry" />
        </mxCell>
        <mxCell id="xkobcFin9VNGDIBJeJWe-265" value="FK" style="shape=partialRectangle;connectable=0;fillColor=none;top=0;left=0;bottom=0;right=0;fontStyle=0;overflow=hidden;fontSize=18;" parent="xkobcFin9VNGDIBJeJWe-264" vertex="1">
          <mxGeometry width="30" height="100" as="geometry">
            <mxRectangle width="30" height="100" as="alternateBounds" />
          </mxGeometry>
        </mxCell>
        <mxCell id="xkobcFin9VNGDIBJeJWe-266" value="account_id" style="shape=partialRectangle;connectable=0;fillColor=none;top=0;left=0;bottom=0;right=0;align=left;spacingLeft=6;fontStyle=0;overflow=hidden;fontSize=25;" parent="xkobcFin9VNGDIBJeJWe-264" vertex="1">
          <mxGeometry x="30" width="499.88" height="100" as="geometry">
            <mxRectangle width="499.88" height="100" as="alternateBounds" />
          </mxGeometry>
        </mxCell>
        <mxCell id="xkobcFin9VNGDIBJeJWe-267" value="" style="shape=tableRow;horizontal=0;startSize=0;swimlaneHead=0;swimlaneBody=0;fillColor=none;collapsible=0;dropTarget=0;points=[[0,0.5],[1,0.5]];portConstraint=eastwest;top=0;left=0;right=0;bottom=0;" parent="xkobcFin9VNGDIBJeJWe-260" vertex="1">
          <mxGeometry y="255" width="529.88" height="100" as="geometry" />
        </mxCell>
        <mxCell id="xkobcFin9VNGDIBJeJWe-268" value="" style="shape=partialRectangle;connectable=0;fillColor=none;top=0;left=0;bottom=0;right=0;editable=1;overflow=hidden;" parent="xkobcFin9VNGDIBJeJWe-267" vertex="1">
          <mxGeometry width="30" height="100" as="geometry">
            <mxRectangle width="30" height="100" as="alternateBounds" />
          </mxGeometry>
        </mxCell>
        <mxCell id="xkobcFin9VNGDIBJeJWe-269" value="invite_code" style="shape=partialRectangle;connectable=0;fillColor=none;top=0;left=0;bottom=0;right=0;align=left;spacingLeft=6;overflow=hidden;fontSize=25;" parent="xkobcFin9VNGDIBJeJWe-267" vertex="1">
          <mxGeometry x="30" width="499.88" height="100" as="geometry">
            <mxRectangle width="499.88" height="100" as="alternateBounds" />
          </mxGeometry>
        </mxCell>
        <mxCell id="xkobcFin9VNGDIBJeJWe-270" value="" style="shape=tableRow;horizontal=0;startSize=0;swimlaneHead=0;swimlaneBody=0;fillColor=none;collapsible=0;dropTarget=0;points=[[0,0.5],[1,0.5]];portConstraint=eastwest;top=0;left=0;right=0;bottom=0;" parent="xkobcFin9VNGDIBJeJWe-260" vertex="1">
          <mxGeometry y="355" width="529.88" height="100" as="geometry" />
        </mxCell>
        <mxCell id="xkobcFin9VNGDIBJeJWe-271" value="" style="shape=partialRectangle;connectable=0;fillColor=none;top=0;left=0;bottom=0;right=0;editable=1;overflow=hidden;" parent="xkobcFin9VNGDIBJeJWe-270" vertex="1">
          <mxGeometry width="30" height="100" as="geometry">
            <mxRectangle width="30" height="100" as="alternateBounds" />
          </mxGeometry>
        </mxCell>
        <mxCell id="xkobcFin9VNGDIBJeJWe-272" value="is_valid, boolean" style="shape=partialRectangle;connectable=0;fillColor=none;top=0;left=0;bottom=0;right=0;align=left;spacingLeft=6;overflow=hidden;fontSize=25;" parent="xkobcFin9VNGDIBJeJWe-270" vertex="1">
          <mxGeometry x="30" width="499.88" height="100" as="geometry">
            <mxRectangle width="499.88" height="100" as="alternateBounds" />
          </mxGeometry>
        </mxCell>
        <mxCell id="xkobcFin9VNGDIBJeJWe-273" value="" style="shape=tableRow;horizontal=0;startSize=0;swimlaneHead=0;swimlaneBody=0;fillColor=none;collapsible=0;dropTarget=0;points=[[0,0.5],[1,0.5]];portConstraint=eastwest;top=0;left=0;right=0;bottom=0;" parent="xkobcFin9VNGDIBJeJWe-260" vertex="1">
          <mxGeometry y="455" width="529.88" height="100" as="geometry" />
        </mxCell>
        <mxCell id="xkobcFin9VNGDIBJeJWe-274" value="" style="shape=partialRectangle;connectable=0;fillColor=none;top=0;left=0;bottom=0;right=0;editable=1;overflow=hidden;" parent="xkobcFin9VNGDIBJeJWe-273" vertex="1">
          <mxGeometry width="30" height="100" as="geometry">
            <mxRectangle width="30" height="100" as="alternateBounds" />
          </mxGeometry>
        </mxCell>
        <mxCell id="xkobcFin9VNGDIBJeJWe-275" value="activated_date" style="shape=partialRectangle;connectable=0;fillColor=none;top=0;left=0;bottom=0;right=0;align=left;spacingLeft=6;overflow=hidden;fontSize=25;" parent="xkobcFin9VNGDIBJeJWe-273" vertex="1">
          <mxGeometry x="30" width="499.88" height="100" as="geometry">
            <mxRectangle width="499.88" height="100" as="alternateBounds" />
          </mxGeometry>
        </mxCell>
        <mxCell id="xkobcFin9VNGDIBJeJWe-276" value="" style="edgeStyle=entityRelationEdgeStyle;fontSize=12;html=1;endArrow=ERmandOne;startArrow=ERmandOne;rounded=0;entryX=1;entryY=0.5;entryDx=0;entryDy=0;exitX=0;exitY=0.5;exitDx=0;exitDy=0;strokeWidth=4;" parent="1" source="xkobcFin9VNGDIBJeJWe-210" target="xkobcFin9VNGDIBJeJWe-264" edge="1">
          <mxGeometry width="100" height="100" relative="1" as="geometry">
            <mxPoint x="1173.225" y="2080.0506896551724" as="sourcePoint" />
            <mxPoint x="1425.5511363636363" y="1738.8437931034484" as="targetPoint" />
          </mxGeometry>
        </mxCell>
        <mxCell id="xkobcFin9VNGDIBJeJWe-286" value="speciality" style="shape=table;startSize=55;container=1;collapsible=1;childLayout=tableLayout;fixedRows=1;rowLines=0;fontStyle=1;align=center;resizeLast=1;fontSize=26;comic=0;strokeWidth=4;" parent="1" vertex="1">
          <mxGeometry x="807.08" y="885.8199999999999" width="519.34" height="255" as="geometry" />
        </mxCell>
        <mxCell id="xkobcFin9VNGDIBJeJWe-287" value="" style="shape=tableRow;horizontal=0;startSize=0;swimlaneHead=0;swimlaneBody=0;fillColor=none;collapsible=0;dropTarget=0;points=[[0,0.5],[1,0.5]];portConstraint=eastwest;top=0;left=0;right=0;bottom=1;fontSize=18;" parent="xkobcFin9VNGDIBJeJWe-286" vertex="1">
          <mxGeometry y="55" width="519.34" height="100" as="geometry" />
        </mxCell>
        <mxCell id="xkobcFin9VNGDIBJeJWe-288" value="PK" style="shape=partialRectangle;connectable=0;fillColor=none;top=0;left=0;bottom=0;right=0;fontStyle=1;overflow=hidden;fontSize=18;" parent="xkobcFin9VNGDIBJeJWe-287" vertex="1">
          <mxGeometry width="30" height="100" as="geometry">
            <mxRectangle width="30" height="100" as="alternateBounds" />
          </mxGeometry>
        </mxCell>
        <mxCell id="xkobcFin9VNGDIBJeJWe-289" value="id" style="shape=partialRectangle;connectable=0;fillColor=none;top=0;left=0;bottom=0;right=0;align=left;spacingLeft=6;fontStyle=5;overflow=hidden;fontSize=25;" parent="xkobcFin9VNGDIBJeJWe-287" vertex="1">
          <mxGeometry x="30" width="489.34000000000003" height="100" as="geometry">
            <mxRectangle width="489.34000000000003" height="100" as="alternateBounds" />
          </mxGeometry>
        </mxCell>
        <mxCell id="xkobcFin9VNGDIBJeJWe-290" value="" style="shape=tableRow;horizontal=0;startSize=0;swimlaneHead=0;swimlaneBody=0;fillColor=none;collapsible=0;dropTarget=0;points=[[0,0.5],[1,0.5]];portConstraint=eastwest;top=0;left=0;right=0;bottom=0;" parent="xkobcFin9VNGDIBJeJWe-286" vertex="1">
          <mxGeometry y="155" width="519.34" height="100" as="geometry" />
        </mxCell>
        <mxCell id="xkobcFin9VNGDIBJeJWe-291" value="" style="shape=partialRectangle;connectable=0;fillColor=none;top=0;left=0;bottom=0;right=0;editable=1;overflow=hidden;" parent="xkobcFin9VNGDIBJeJWe-290" vertex="1">
          <mxGeometry width="30" height="100" as="geometry">
            <mxRectangle width="30" height="100" as="alternateBounds" />
          </mxGeometry>
        </mxCell>
        <mxCell id="xkobcFin9VNGDIBJeJWe-292" value="speciality_name" style="shape=partialRectangle;connectable=0;fillColor=none;top=0;left=0;bottom=0;right=0;align=left;spacingLeft=6;overflow=hidden;fontSize=25;" parent="xkobcFin9VNGDIBJeJWe-290" vertex="1">
          <mxGeometry x="30" width="489.34000000000003" height="100" as="geometry">
            <mxRectangle width="489.34000000000003" height="100" as="alternateBounds" />
          </mxGeometry>
        </mxCell>
        <mxCell id="xkobcFin9VNGDIBJeJWe-293" value="university" style="shape=table;startSize=55;container=1;collapsible=1;childLayout=tableLayout;fixedRows=1;rowLines=0;fontStyle=1;align=center;resizeLast=1;fontSize=26;comic=0;strokeWidth=4;" parent="1" vertex="1">
          <mxGeometry x="807.08" y="1405.51" width="555.12" height="257.22" as="geometry" />
        </mxCell>
        <mxCell id="xkobcFin9VNGDIBJeJWe-294" value="" style="shape=tableRow;horizontal=0;startSize=0;swimlaneHead=0;swimlaneBody=0;fillColor=none;collapsible=0;dropTarget=0;points=[[0,0.5],[1,0.5]];portConstraint=eastwest;top=0;left=0;right=0;bottom=1;" parent="xkobcFin9VNGDIBJeJWe-293" vertex="1">
          <mxGeometry y="55" width="555.12" height="100" as="geometry" />
        </mxCell>
        <mxCell id="xkobcFin9VNGDIBJeJWe-295" value="PK" style="shape=partialRectangle;connectable=0;fillColor=none;top=0;left=0;bottom=0;right=0;fontStyle=1;overflow=hidden;fontSize=18;" parent="xkobcFin9VNGDIBJeJWe-294" vertex="1">
          <mxGeometry width="30" height="100" as="geometry">
            <mxRectangle width="30" height="100" as="alternateBounds" />
          </mxGeometry>
        </mxCell>
        <mxCell id="xkobcFin9VNGDIBJeJWe-296" value="id" style="shape=partialRectangle;connectable=0;fillColor=none;top=0;left=0;bottom=0;right=0;align=left;spacingLeft=6;fontStyle=5;overflow=hidden;fontSize=25;" parent="xkobcFin9VNGDIBJeJWe-294" vertex="1">
          <mxGeometry x="30" width="525.12" height="100" as="geometry">
            <mxRectangle width="525.12" height="100" as="alternateBounds" />
          </mxGeometry>
        </mxCell>
        <mxCell id="xkobcFin9VNGDIBJeJWe-297" value="" style="shape=tableRow;horizontal=0;startSize=0;swimlaneHead=0;swimlaneBody=0;fillColor=none;collapsible=0;dropTarget=0;points=[[0,0.5],[1,0.5]];portConstraint=eastwest;top=0;left=0;right=0;bottom=0;" parent="xkobcFin9VNGDIBJeJWe-293" vertex="1">
          <mxGeometry y="155" width="555.12" height="100" as="geometry" />
        </mxCell>
        <mxCell id="xkobcFin9VNGDIBJeJWe-298" value="" style="shape=partialRectangle;connectable=0;fillColor=none;top=0;left=0;bottom=0;right=0;editable=1;overflow=hidden;" parent="xkobcFin9VNGDIBJeJWe-297" vertex="1">
          <mxGeometry width="30" height="100" as="geometry">
            <mxRectangle width="30" height="100" as="alternateBounds" />
          </mxGeometry>
        </mxCell>
        <mxCell id="xkobcFin9VNGDIBJeJWe-299" value="university_name" style="shape=partialRectangle;connectable=0;fillColor=none;top=0;left=0;bottom=0;right=0;align=left;spacingLeft=6;overflow=hidden;fontSize=25;" parent="xkobcFin9VNGDIBJeJWe-297" vertex="1">
          <mxGeometry x="30" width="525.12" height="100" as="geometry">
            <mxRectangle width="525.12" height="100" as="alternateBounds" />
          </mxGeometry>
        </mxCell>
        <mxCell id="xkobcFin9VNGDIBJeJWe-300" value="" style="edgeStyle=entityRelationEdgeStyle;fontSize=12;html=1;endArrow=ERoneToMany;rounded=0;entryX=0;entryY=0.5;entryDx=0;entryDy=0;exitX=1;exitY=0.5;exitDx=0;exitDy=0;strokeWidth=4;" parent="1" source="xkobcFin9VNGDIBJeJWe-294" target="xkobcFin9VNGDIBJeJWe-163" edge="1">
          <mxGeometry width="100" height="100" relative="1" as="geometry">
            <mxPoint x="3292.764545454545" y="3103.6713793103445" as="sourcePoint" />
            <mxPoint x="3545.090681818181" y="2762.4644827586203" as="targetPoint" />
          </mxGeometry>
        </mxCell>
        <mxCell id="xkobcFin9VNGDIBJeJWe-301" value="sex" style="shape=table;startSize=55;container=1;collapsible=1;childLayout=tableLayout;fixedRows=1;rowLines=0;fontStyle=1;align=center;resizeLast=1;fontSize=26;comic=0;strokeWidth=4;" parent="1" vertex="1">
          <mxGeometry x="1031.4899999999998" y="2677.16" width="504.65" height="259.84" as="geometry" />
        </mxCell>
        <mxCell id="xkobcFin9VNGDIBJeJWe-302" value="" style="shape=tableRow;horizontal=0;startSize=0;swimlaneHead=0;swimlaneBody=0;fillColor=none;collapsible=0;dropTarget=0;points=[[0,0.5],[1,0.5]];portConstraint=eastwest;top=0;left=0;right=0;bottom=1;" parent="xkobcFin9VNGDIBJeJWe-301" vertex="1">
          <mxGeometry y="55" width="504.65" height="100" as="geometry" />
        </mxCell>
        <mxCell id="xkobcFin9VNGDIBJeJWe-303" value="PK" style="shape=partialRectangle;connectable=0;fillColor=none;top=0;left=0;bottom=0;right=0;fontStyle=1;overflow=hidden;fontSize=18;" parent="xkobcFin9VNGDIBJeJWe-302" vertex="1">
          <mxGeometry width="30" height="100" as="geometry">
            <mxRectangle width="30" height="100" as="alternateBounds" />
          </mxGeometry>
        </mxCell>
        <mxCell id="xkobcFin9VNGDIBJeJWe-304" value="id" style="shape=partialRectangle;connectable=0;fillColor=none;top=0;left=0;bottom=0;right=0;align=left;spacingLeft=6;fontStyle=5;overflow=hidden;fontSize=25;" parent="xkobcFin9VNGDIBJeJWe-302" vertex="1">
          <mxGeometry x="30" width="474.65" height="100" as="geometry">
            <mxRectangle width="474.65" height="100" as="alternateBounds" />
          </mxGeometry>
        </mxCell>
        <mxCell id="xkobcFin9VNGDIBJeJWe-305" value="" style="shape=tableRow;horizontal=0;startSize=0;swimlaneHead=0;swimlaneBody=0;fillColor=none;collapsible=0;dropTarget=0;points=[[0,0.5],[1,0.5]];portConstraint=eastwest;top=0;left=0;right=0;bottom=0;" parent="xkobcFin9VNGDIBJeJWe-301" vertex="1">
          <mxGeometry y="155" width="504.65" height="100" as="geometry" />
        </mxCell>
        <mxCell id="xkobcFin9VNGDIBJeJWe-306" value="FK" style="shape=partialRectangle;connectable=0;fillColor=none;top=0;left=0;bottom=0;right=0;fontStyle=0;overflow=hidden;fontSize=18;" parent="xkobcFin9VNGDIBJeJWe-305" vertex="1">
          <mxGeometry width="30" height="100" as="geometry">
            <mxRectangle width="30" height="100" as="alternateBounds" />
          </mxGeometry>
        </mxCell>
        <mxCell id="xkobcFin9VNGDIBJeJWe-307" value="sex_name" style="shape=partialRectangle;connectable=0;fillColor=none;top=0;left=0;bottom=0;right=0;align=left;spacingLeft=6;fontStyle=0;overflow=hidden;fontSize=25;" parent="xkobcFin9VNGDIBJeJWe-305" vertex="1">
          <mxGeometry x="30" width="474.65" height="100" as="geometry">
            <mxRectangle width="474.65" height="100" as="alternateBounds" />
          </mxGeometry>
        </mxCell>
        <mxCell id="xkobcFin9VNGDIBJeJWe-308" value="" style="edgeStyle=entityRelationEdgeStyle;fontSize=12;html=1;endArrow=ERoneToMany;rounded=0;entryX=0;entryY=0.5;entryDx=0;entryDy=0;exitX=1;exitY=0.5;exitDx=0;exitDy=0;strokeWidth=4;" parent="1" source="xkobcFin9VNGDIBJeJWe-302" target="xkobcFin9VNGDIBJeJWe-235" edge="1">
          <mxGeometry width="100" height="100" relative="1" as="geometry">
            <mxPoint x="2283.4599999999996" y="2762.4644827586203" as="sourcePoint" />
            <mxPoint x="2535.786136363636" y="2421.2575862068966" as="targetPoint" />
          </mxGeometry>
        </mxCell>
        <mxCell id="n9tZfQVXccSnKf5BsfV8-1" value="" style="edgeStyle=entityRelationEdgeStyle;fontSize=12;html=1;endArrow=ERmany;startArrow=ERmany;rounded=0;strokeWidth=4;entryX=0;entryY=0.25;entryDx=0;entryDy=0;exitX=1;exitY=0.5;exitDx=0;exitDy=0;" parent="1" source="xkobcFin9VNGDIBJeJWe-185" target="xkobcFin9VNGDIBJeJWe-170" edge="1">
          <mxGeometry width="100" height="100" relative="1" as="geometry">
            <mxPoint x="1083" y="1135" as="sourcePoint" />
            <mxPoint x="1183" y="1035" as="targetPoint" />
          </mxGeometry>
        </mxCell>
      </root>
    </mxGraphModel>
  </diagram>
</mxfile>
